HIERARCHY
ROOT Hips
{
  OFFSET -26.5434 98.0092 -190.819
  CHANNELS 6 Xposition Yposition Zposition Zrotation Xrotation Yrotation
  JOINT Spine
  {
    OFFSET 0 11.8905 0
    CHANNELS 3 Zrotation Xrotation Yrotation
    JOINT Spine1
    {
      OFFSET 0 25.6574 0.127663
      CHANNELS 3 Zrotation Xrotation Yrotation
      JOINT HEad
      {
        OFFSET 0 8.73416 0.011341
        CHANNELS 3 Zrotation Xrotation Yrotation
        End Site
        {
          OFFSET -0.29 12.7742 2.51395
        }
      }
      JOINT LeftShoulder1
      {
        OFFSET 8.99 -0.362252 -0.22
        CHANNELS 3 Zrotation Xrotation Yrotation
        JOINT LeftArm
        {
          OFFSET 10.2827 -0.00338 0.322123
          CHANNELS 3 Zrotation Xrotation Yrotation
          JOINT LeftForeArm
          {
            OFFSET 32.7669 0.099144 -1.42434
            CHANNELS 3 Zrotation Xrotation Yrotation
            JOINT LeftHand
            {
              OFFSET 27.5643 0.085362 1.02216
              CHANNELS 3 Zrotation Xrotation Yrotation
              End Site
              {
                OFFSET 16.7443 -0.6 1.50291
              }
            }
          }
        }
      }
      JOINT RightShoulder
      {
        OFFSET -8.99 -0.362252 -0.22
        CHANNELS 3 Zrotation Xrotation Yrotation
        JOINT RightArm
        {
          OFFSET -10.2827 -0.00338 0.322123
          CHANNELS 3 Zrotation Xrotation Yrotation
          JOINT RightForeArm
          {
            OFFSET -32.8971 0.099144 -1.42434
            CHANNELS 3 Zrotation Xrotation Yrotation
            JOINT RightHand
            {
              OFFSET -27.4921 0.085362 1.02216
              CHANNELS 3 Zrotation Xrotation Yrotation
              End Site
              {
                OFFSET -16.6312 -0.6 1.50291
              }
            }
          }
        }
      }
    }
  }
  JOINT RightUpLeg
  {
    OFFSET -8.9458 -8.66707 0.101652
    CHANNELS 3 Zrotation Xrotation Yrotation
    JOINT RightLeg
    {
      OFFSET 0 -44.4227 1.3727
      CHANNELS 3 Zrotation Xrotation Yrotation
      JOINT RightFoot
      {
        OFFSET 0.253549 -42.0924 -1.46059
        CHANNELS 3 Zrotation Xrotation Yrotation
        JOINT RightToes
        {
          OFFSET 0.04 -4.41509 8.4991
          CHANNELS 3 Zrotation Xrotation Yrotation
          End Site
          {
            OFFSET -0.08 -0.137448 9.77979
          }
        }
      }
    }
  }
  JOINT LeftUpLeg
  {
    OFFSET 8.9458 -8.66707 0.101652
    CHANNELS 3 Zrotation Xrotation Yrotation
    JOINT LeftLeg
    {
      OFFSET 0 -44.4227 1.3727
      CHANNELS 3 Zrotation Xrotation Yrotation
      JOINT LeftFoot
      {
        OFFSET 0.663169 -41.9567 -1.41433
        CHANNELS 3 Zrotation Xrotation Yrotation
        JOINT LeftToes
        {
          OFFSET -0.04 -4.41509 8.4991
          CHANNELS 3 Zrotation Xrotation Yrotation
          End Site
          {
            OFFSET 0.08 -0.047448 9.77979
          }
        }
      }
    }
  }
}
MOTION
Frames:	17
Frame Time:	0.0166667
-24.1763 95.0782 -185.789 15.2832 25.8875 105.12 -23.5004 22.9315 8.36465 1.59449 -0.869528 -0.0770113 -10.2994 10.5213 12.3362 -9.93923e-017 1.73937e-016 9.54166e-015 -76.2565 -69.1546 -52.1804 -40.7962 27.0005 -59.5323 11.0377 12.5143 -25.3587 6.12767 12.395 -0.225394 92.7032 7.45512 68.7264 9.74657 50.3428 83.1137 10.2798 19.7963 13.956 -40.9423 9.42332 14.9202 37.6367 15.6946 -48.7089 69.6315 1.66728 0.163768 0.0462048 0.000533403 0.662642 8.49599 -47.0676 26.4666 91.4299 73.1609 -59.725 -30.0672 19.7608 17.8142 7.3418e-008 1.56035e-007 -4.88728e-009 
-23.8565 94.9898 -185.822 13.8645 23.5751 107.619 -23.4687 22.4728 8.03047 1.52312 -0.824548 -0.0781766 -8.02068 10.3793 11.6902 -7.95139e-016 0 -6.36111e-015 -94.5412 -71.6904 -71.8139 -48.768 37.0746 -56.0865 15.9442 15.5378 -25.0143 8.7908 11.6642 -2.02913 93.9281 4.4245 69.0437 11.4701 50.1146 84.1574 8.48987 19.6707 14.7024 -37.9256 10 13.3852 35.8867 14.0611 -47.2639 70.6363 1.66106 -0.105947 0.0462048 0.000533403 0.662642 0.983191 -44.0971 25.3192 79.0166 65.8148 -46.7362 -26.9246 18.8327 16.8334 7.3418e-008 1.56035e-007 -4.88728e-009 
-23.6009 94.9141 -185.918 12.4792 20.6978 110.253 -22.7865 22.1885 7.17634 1.45394 -0.783078 -0.076398 -5.83506 9.81617 11.1283 2.20695e-032 -3.97569e-016 3.18055e-015 -118.782 -71.1584 -96.6854 -60.1991 46.9878 -49.4136 20.6712 18.1834 -22.1307 11.593 10.6524 -3.73872 95.9242 1.03028 69.5262 14.4066 50.0061 85.2751 9.70621 19.2891 13.8294 -34.2122 10.3054 11.4851 33.7442 12.3034 -45.253 71.7565 1.71703 -0.511135 0.0462048 0.000533403 0.662642 -5.2747 -40.5721 24.397 71.3402 57.7584 -37.4634 -24.7573 17.677 15.9743 7.3418e-008 1.56035e-007 -4.88728e-009 
-23.4424 94.9503 -186.057 11.4092 18.0199 112.488 -21.8539 22.0078 6.21881 1.40164 -0.768286 -0.0733601 -4.06837 9.23235 10.687 1.10348e-031 -1.98785e-015 3.18055e-015 -141.924 -65.9302 -117.945 -74.1746 55.2525 -36.2059 23.0436 18.6863 -17.5703 14.8075 9.85823 -5.09468 100.416 -3.29514 70.4648 21.1621 50.6301 85.7148 17.8292 18.7258 8.39368 -30.4458 10.4263 9.80336 30.6252 10.3406 -41.2744 73.2942 1.81085 -1.12403 0.0462048 0.000533403 0.662642 -9.43187 -35.865 23.753 62.7726 50.1174 -25.2376 -24.4255 16.0972 15.0122 7.3418e-008 1.56035e-007 -4.88728e-009 
-23.3538 95.0661 -186.226 10.5891 15.6086 114.378 -20.729 21.9176 5.19717 1.32649 -0.728198 -0.070335 -2.66212 8.61566 10.3326 0 0 -3.18055e-015 -151.869 -60.6328 -126.561 -86.9376 59.011 -23.891 24.2276 19.8921 -16.8294 17.4181 9.09562 -6.10226 103.534 -5.93998 71.1503 26.1294 51.7977 85.08 20.427 18.9726 5.18891 -26.9293 10.3689 8.44424 27.679 8.54882 -38.015 74.8558 1.98709 -1.7639 0.0462048 0.000533403 0.662642 -11.7124 -30.7996 23.2558 53.5845 42.6303 -12.7413 -20.0529 15.2705 12.9129 7.3418e-008 1.56035e-007 -4.88727e-009 
-23.335 95.269 -186.384 9.9659 13.5027 115.964 -19.467 21.9077 4.14618 1.24887 -0.685347 -0.0677608 -1.60717 8.01293 10.0573 3.18055e-015 -1.59028e-015 3.18055e-015 -156.508 -56.5599 -130.174 -96.4838 60.6408 -14.6622 24.6339 19.8818 -14.5795 19.4122 8.41148 -6.81985 105.597 -7.56108 71.6228 29.7701 52.9925 84.1785 22.7504 18.4929 3.32853 -23.7227 10.1883 7.39021 24.8367 6.96596 -35.4316 76.4409 2.18833 -2.43642 0.0462048 0.000533403 0.662642 -12.0947 -25.5709 22.5821 44.0655 35.1999 -0.89248 -15.608 14.0679 10.6215 7.3418e-008 1.56035e-007 -4.88728e-009 
-23.3621 95.4954 -186.487 9.50063 11.7136 117.281 -18.113 21.9664 3.09469 1.17022 -0.642492 -0.0650318 -0.86226 7.441 9.84483 -1.59028e-015 1.59028e-015 -0 -158.788 -53.7122 -131.608 -102.84 61.5344 -8.62842 24.6797 20.3277 -14.3721 20.8737 7.8152 -7.28223 106.844 -8.58861 71.9584 32.4537 53.9665 83.3221 22.8874 18.8029 2.15795 -20.9217 9.93751 6.6353 22.2325 5.58135 -33.4797 77.9342 2.40802 -3.10418 0.0462048 0.000533403 0.662642 -10.916 -20.499 21.48 34.1395 27.7114 9.52444 -9.86418 12.6369 8.1896 7.3418e-008 1.56035e-007 -4.88728e-009 
-23.3542 95.6822 -186.528 9.17182 10.2287 118.353 -16.7005 22.0821 2.07102 1.09091 -0.599634 -0.0622256 -0.37553 6.91048 9.68036 -1.59028e-015 0 -0 -159.86 -51.8542 -131.953 -106.665 62.284 -5.10423 24.5741 20.0789 -13.1467 21.8831 7.31436 -7.53607 107.495 -9.25698 72.1922 34.3949 54.6908 82.6818 23.4113 18.6628 1.47595 -18.5878 9.69461 6.17214 20.043 4.38704 -32.0841 79.2048 2.61315 -3.71395 0.0462048 0.000533403 0.662642 -8.68527 -16.0088 19.5226 26.249 22.0039 17.1021 -6.47216 10.8054 6.65346 7.3418e-008 1.56035e-007 -4.88727e-009 
-23.2944 95.8058 -186.489 8.97053 9.01984 119.198 -15.2553 22.2429 1.10274 1.01132 -0.556772 -0.0593422 -0.0910296 6.42967 9.5488 -0 -7.95139e-016 -0 -160.251 -50.7496 -131.705 -108.626 63.0746 -3.43074 24.3855 20.1055 -13.105 22.4995 6.91335 -7.61773 107.75 -9.70167 72.3501 35.7412 55.1932 82.3031 22.9934 18.9778 0.993024 -16.6835 9.47243 5.96068 18.3131 3.4197 -31.1724 80.184 2.80993 -4.26575 0.0462048 0.000533403 0.662642 -5.56972 -12.2836 16.677 19.1965 17.9278 23.446 -4.28547 8.82446 5.47879 7.3418e-008 1.56035e-007 -4.88728e-009 
-23.1798 95.8506 -186.368 8.89194 8.0499 119.835 -13.7996 22.4363 0.210425 0.930896 -0.513908 -0.0563045 0.0483499 6.0045 9.43595 -3.18055e-015 7.95139e-016 3.18055e-015 -160.208 -50.1948 -131.1 -109.119 63.9091 -3.16458 24.2055 19.7293 -12.4402 22.7795 6.61461 -7.56858 107.762 -9.99495 72.4361 36.5993 55.5558 82.1952 22.9898 18.9914 0.683632 -15.1497 9.22538 5.95199 17.0696 2.80689 -30.6596 80.857 2.97589 -4.71597 0.0462048 0.000533403 0.662642 -1.83687 -9.44008 12.9697 12.6588 15.1167 29.4187 -2.97279 6.89736 4.47465 7.3418e-008 1.56035e-007 -4.88728e-009 
-23.0204 95.8108 -186.18 8.92634 7.2739 120.29 -12.0405 22.3022 -0.7393 0.846893 -0.471041 -0.0531349 -0.201214 5.9763 9.35492 2.64834e-031 -2.38542e-015 6.36111e-015 -160.013 -50.3541 -130.094 -108.396 64.7425 -4.03648 24.0026 19.5277 -12.4839 22.4836 6.73588 -7.50246 107.665 -10.1845 72.4754 37.0532 55.8311 82.3126 22.5204 19.2424 0.434931 -13.9247 8.89028 6.09495 16.3185 2.67033 -30.4588 81.2442 3.08122 -5.01692 0.0462048 0.000533403 0.662642 2.001 -7.65517 8.48581 7.05135 13.3142 35.242 -2.40277 5.33053 3.64346 7.3418e-008 1.56035e-007 -4.88728e-009 
-22.8427 95.7124 -185.942 9.05331 6.65736 120.599 -10.395 22.2387 -1.56942 0.766322 -0.428172 -0.0498794 -0.432538 5.93974 9.2581 -3.18055e-015 0 3.18055e-015 -159.431 -50.7067 -128.858 -106.536 65.5139 -5.92956 23.8232 19.1231 -12.1589 22.0287 6.88303 -7.33212 107.505 -10.3005 72.4693 37.1973 56.0733 82.6193 22.3442 19.2901 0.272125 -12.9826 8.42298 6.34535 16.0885 3.04897 -30.5088 81.3499 3.10668 -5.13318 0.0462048 0.000533403 0.662642 6.31793 -7.47627 3.3495 0.312384 13.6921 41.6107 -1.8203 3.42107 2.86053 7.3418e-008 1.56035e-007 -4.88728e-009 
-22.6713 95.5807 -185.642 9.24972 6.1631 120.806 -8.87553 22.2319 -2.29855 0.686392 -0.385301 -0.0464975 -0.602243 5.88863 9.13285 3.18055e-015 0 -0 -158.408 -51.1477 -127.358 -103.571 66.1725 -8.79574 23.6192 18.8674 -12.2663 21.49 7.04074 -7.06797 107.306 -10.3864 72.4302 37.121 56.3012 83.0645 21.9194 19.4542 0.154623 -12.2645 7.82815 6.65541 16.3315 3.841 -30.7869 81.1767 3.06699 -5.10005 0.0462048 0.000533403 0.662642 11.8295 -8.14871 -2.10565 -9.50567 14.0761 49.3155 -0.289182 1.02621 1.70375 7.3418e-008 1.56035e-007 -4.88728e-009 
-22.5391 95.396 -185.284 9.4957 5.74752 120.955 -7.48559 22.2621 -2.93977 0.609583 -0.342427 -0.0429899 -0.672809 5.82471 8.96201 3.18055e-015 7.95139e-016 -3.18055e-015 -149.813 -52.1583 -120.131 -88.4438 66.8021 -22.6455 23.4414 18.5525 -12.1361 20.9274 7.19607 -6.71181 107.093 -10.4829 72.3869 36.9071 56.513 83.5705 21.6923 19.4975 0.10441 -11.7396 7.1053 6.98164 17.0144 4.93549 -31.2881 80.7479 2.97741 -4.95075 0.0462048 0.000533403 0.662642 19.1513 -7.11162 -7.8119 -22.5574 8.05343 56.7741 4.37648 -0.639005 0.750432 7.3418e-008 1.56035e-007 -4.88727e-009 
-22.4636 95.1626 -184.918 9.77308 5.39322 121.068 -6.23471 22.3228 -3.49506 0.532775 -0.299552 -0.0393971 -0.634147 5.74063 8.74033 -1.59028e-015 1.59028e-015 6.36111e-015 -143.636 -52.6197 -114.758 -77.3046 66.2748 -33.0524 23.2295 18.3581 -12.2521 20.4025 7.33129 -6.2949 106.85 -10.6042 72.3444 36.6187 56.7001 84.0884 21.3263 19.6217 0.0958518 -11.3539 6.3458 7.3005 17.9235 6.125 -31.9996 80.1858 2.89178 -4.80398 0.0462048 0.000533403 0.662642 24.1585 -5.783 -13.5223 -29.6116 0.244866 60.8386 8.00153 -0.46071 1.03451 7.3418e-008 1.56035e-007 -4.88728e-009 
-22.4375 94.8689 -184.613 10.0621 5.09848 121.16 -5.13242 22.4078 -3.96941 0.455968 -0.256676 -0.0356745 -0.491596 5.63123 8.46837 1.59028e-015 4.77083e-015 3.18055e-015 -139.111 -52.7433 -110.714 -69.2552 65.2536 -40.5612 22.9658 18.1381 -12.1824 19.9302 7.4424 -5.83117 106.591 -10.7711 72.3137 36.3014 56.8562 84.5863 21.0801 19.692 0.136828 -11.1663 5.57819 7.60414 19.0387 7.3822 -32.875 79.5918 2.79979 -4.65293 0.0462048 0.000533403 0.662642 27.3617 -7.07364 -18.4313 -34.2736 -1.97967 65.2529 8.3066 -1.10897 0.976212 7.3418e-008 1.56035e-007 -4.88728e-009 
-22.4466 94.5303 -184.389 10.3449 4.86342 121.245 -4.18393 22.5095 -4.37051 0.379162 -0.213798 -0.0318225 -0.257326 5.49201 8.15115 0 7.95139e-016 -0 -135.694 -52.6158 -107.588 -63.3047 64.0461 -45.9865 22.6476 17.983 -12.2819 19.4984 7.53488 -5.32608 106.354 -10.9949 72.3153 35.9892 56.9677 85.0325 20.7489 19.8081 0.200397 -11.1693 4.82294 7.88052 20.2875 8.68693 -33.8788 79.0446 2.70197 -4.50657 0.0462048 0.000533403 0.662642 29.5875 -9.35219 -22.6443 -38.3703 -1.73847 70.0376 7.06031 -2.17154 0.429893 7.3418e-008 1.56035e-007 -4.88728e-009 
